<svg xmlns="http://www.w3.org/2000/svg" viewBox="0 0 512 512">
  <defs>
    <linearGradient id="bg" x1="0%" y1="0%" x2="100%" y2="100%">
      <stop offset="0%" style="stop-color:#1a365d"/>
      <stop offset="100%" style="stop-color:#2b6cb0"/>
    </linearGradient>
  </defs>
  <rect width="512" height="512" rx="80" fill="url(#bg)"/>
  <!-- Water drop -->
  <path d="M256 80 C256 80 160 200 160 300 C160 353 203 396 256 396 C309 396 352 353 352 300 C352 200 256 80 256 80Z" fill="#38b2ac" opacity="0.9"/>
  <!-- Shine lines -->
  <path d="M220 240 L240 220" stroke="white" stroke-width="8" stroke-linecap="round" opacity="0.8"/>
  <path d="M200 270 L230 240" stroke="white" stroke-width="6" stroke-linecap="round" opacity="0.6"/>
  <!-- Car silhouette -->
  <path d="M160 370 Q180 340 220 340 L292 340 Q332 340 352 370 L370 380 Q380 388 370 395 L142 395 Q132 388 142 380 Z" fill="white" opacity="0.9"/>
  <circle cx="200" cy="395" r="18" fill="#1a365d"/>
  <circle cx="312" cy="395" r="18" fill="#1a365d"/>
  <circle cx="200" cy="395" r="8" fill="#38b2ac"/>
  <circle cx="312" cy="395" r="8" fill="#38b2ac"/>
  <!-- Sparkles -->
  <circle cx="300" cy="180" r="6" fill="white" opacity="0.8"/>
  <circle cx="330" cy="220" r="4" fill="white" opacity="0.6"/>
  <circle cx="280" cy="150" r="4" fill="white" opacity="0.5"/>
</svg>